<svg width="22" height="22" viewBox="0 0 22 22" fill="none" xmlns="http://www.w3.org/2000/svg">
<path d="M13.75 6.41675H17.7128C18.0877 6.41675 18.425 6.645 18.5634 6.99333L20.0356 10.6728C20.1218 10.8892 20.1667 11.1202 20.1667 11.353V16.8053C20.1667 17.3113 19.756 17.722 19.25 17.722H17.5716" stroke="#0D0C22" stroke-width="1.5" stroke-linecap="round" stroke-linejoin="round"/>
<path d="M14.6666 17.8016H7.48914" stroke="#0D0C22" stroke-width="1.5" stroke-linecap="round" stroke-linejoin="round"/>
<path d="M20.1667 12.8334H16.5V9.16675H19.4333" stroke="#0D0C22" stroke-width="1.5" stroke-linecap="round" stroke-linejoin="round"/>
<path d="M11.5097 4.58325H12.8334C13.3394 4.58325 13.75 4.99392 13.75 5.49992V13.7499H1.83337" stroke="#0D0C22" stroke-width="1.5" stroke-linecap="round" stroke-linejoin="round"/>
<path d="M17.1453 16.7713C17.7127 17.3387 17.7127 18.2581 17.1453 18.8246C16.5779 19.3921 15.6584 19.3921 15.0919 18.8246C14.5245 18.2572 14.5245 17.3378 15.0919 16.7713C15.6594 16.2048 16.5788 16.2048 17.1453 16.7713" stroke="#0D0C22" stroke-width="1.5" stroke-linecap="round" stroke-linejoin="round"/>
<path d="M7.06205 16.7713C7.62947 17.3387 7.62947 18.2581 7.06205 18.8246C6.49463 19.3921 5.57522 19.3921 5.00871 18.8246C4.44221 18.2572 4.4413 17.3378 5.00871 16.7713C5.57613 16.2048 6.49463 16.2048 7.06205 16.7713" stroke="#0D0C22" stroke-width="1.5" stroke-linecap="round" stroke-linejoin="round"/>
<path d="M4.58337 17.7979H2.75004C2.24404 17.7979 1.83337 17.3873 1.83337 16.8813V5.49992C1.83337 4.99392 2.24404 4.58325 2.75004 4.58325H12.1349" stroke="#0D0C22" stroke-width="1.5" stroke-linecap="round" stroke-linejoin="round"/>
</svg>
